HIERARCHY
ROOT Hips
{
	OFFSET 0.00000 0.00000 0.00000
	CHANNELS 6 Xposition Yposition Zposition Zrotation Yrotation Xrotation 
	JOINT LHipJoint
	{
		OFFSET 0 0 0
		CHANNELS 3 Zrotation Yrotation Xrotation
		JOINT LeftHip
		{
			OFFSET 1.56857 -1.73443 1.15205
			CHANNELS 3 Zrotation Yrotation Xrotation
			JOINT LeftKnee
			{
				OFFSET 2.39362 -6.57643 0.00000
				CHANNELS 3 Zrotation Yrotation Xrotation
				JOINT LeftAnkle
				{
					OFFSET 2.50952 -6.89485 0.00000
					CHANNELS 3 Zrotation Yrotation Xrotation
					JOINT LeftToe
					{
						OFFSET 0.17171 -0.47178 1.88682
						CHANNELS 3 Zrotation Yrotation Xrotation
						End Site
						{
							OFFSET 0.00000 -0.00000 0.98146
						}
					}
				}
			}
		}
	}
	JOINT RHipJoint
	{
		OFFSET 0 0 0
		CHANNELS 3 Zrotation Yrotation Xrotation
		JOINT RightHip
		{
			OFFSET -1.28153 -1.73443 1.15205
			CHANNELS 3 Zrotation Yrotation Xrotation
			JOINT RightKnee
			{
				OFFSET -2.26861 -6.23296 0.00000
				CHANNELS 3 Zrotation Yrotation Xrotation
				JOINT RightAnkle
				{
					OFFSET -2.54143 -6.98254 0.00000
					CHANNELS 3 Zrotation Yrotation Xrotation
					JOINT RightToe
					{
						OFFSET -0.23309 -0.64041 1.93119
						CHANNELS 3 Zrotation Yrotation Xrotation
						End Site
						{
							OFFSET -0.00000 -0.00000 1.02013
						}
					}
				}
			}
		}
	}
	JOINT lowerback
	{
		OFFSET 0 0 0
		CHANNELS 3 Zrotation Yrotation Xrotation
		JOINT Chest
		{
			OFFSET -0.07096 2.10460 -0.27878
			CHANNELS 3 Zrotation Yrotation Xrotation
			JOINT Chest2
			{
				OFFSET -0.00826 2.13662 -0.08279
				CHANNELS 3 Zrotation Yrotation Xrotation
				JOINT lowerneck
				{
					OFFSET 0 0 0
					CHANNELS 3 Zrotation Yrotation Xrotation
					JOINT Neck
					{
						OFFSET 0.03239 1.77799 0.24435
						CHANNELS 3 Zrotation Yrotation Xrotation
						JOINT Head
						{
							OFFSET 0.01026 1.74194 -0.49664
							CHANNELS 3 Zrotation Yrotation Xrotation
							End Site
							{
								OFFSET 0.00170 1.83057 -0.19653
							}
						}
					}
				}
				JOINT LeftCollar
				{
					OFFSET 0 0 0
					CHANNELS 3 Zrotation Yrotation Xrotation
					JOINT LeftShoulder
					{
						OFFSET 3.19178 1.35907 -0.31412
CHANNELS 3 Zrotation Xrotation Yrotation
						JOINT LeftElbow
						{
OFFSET 0 -4.852470 -0.000000
CHANNELS 3 Zrotation Xrotation Yrotation
							JOINT LeftWrist
							{
OFFSET 0 -3.555840 0.000000
CHANNELS 3 Zrotation Xrotation Yrotation
								JOINT lhand
								{
									OFFSET 0 0 0
CHANNELS 3 Zrotation Xrotation Yrotation
									JOINT LFingers
									{
OFFSET 0 -0.693200 0.000000
CHANNELS 3 Zrotation Xrotation Yrotation
										End Site
										{
OFFSET 0 -0.558880 0.000000
										}
									}
								}
								JOINT LThumb
								{
OFFSET 0 0.000000 0.000000
CHANNELS 3 Zrotation Xrotation Yrotation
									End Site
									{
OFFSET 0 -0.567410 0.567410
									}
								}
							}
						}
					}
				}
				JOINT RightCollar
				{
					OFFSET 0 0 0
					CHANNELS 3 Zrotation Yrotation Xrotation
					JOINT RightShoulder
					{
						OFFSET -3.28999 1.24191 -0.26899
CHANNELS 3 Zrotation Xrotation Yrotation
						JOINT RightElbow
						{
OFFSET 0 -4.644620 0.000000
CHANNELS 3 Zrotation Xrotation Yrotation
							JOINT RightWrist
							{
OFFSET 0 -3.407030 0.000000
CHANNELS 3 Zrotation Xrotation Yrotation
								JOINT rhand
								{
									OFFSET 0 0 0
CHANNELS 3 Zrotation Xrotation Yrotation
									JOINT RFingers
									{
OFFSET 0 -0.619580 0.000000
CHANNELS 3 Zrotation Xrotation Yrotation
										End Site
										{
OFFSET 0 -0.499520 0.000000
										}
									}
								}
								JOINT RThumb
								{
OFFSET 0 0.000000 0.000000
CHANNELS 3 Zrotation Xrotation Yrotation
									End Site
									{
OFFSET 0 -0.507150 0.507150
									}
								}
							}
						}
					}
				}
			}
		}
	}
}
MOTION
Frames: 7
Frame Time: 0.008333333333333333
-30.076000 16.960300 1.363400 13.899000 86.965800 8.989800 0.000000 0.000000 0.000000 -13.033100 3.660600 7.395700 0.430800 4.212200 11.674400 0.714900 4.966500 -18.538900 0.930300 -6.144300 -17.203600 0.000000 0.000000 0.000000 13.550700 -5.250000 9.512100 -0.097500 -2.013500 5.542800 -0.680800 5.264700 -14.695800 -0.038900 -1.273700 3.502100 -1.871800 1.186700 6.151600 -0.021100 1.813700 7.643000 0.994000 0.934600 4.421200 3.814900 2.588300 -22.591100 -1.585800 3.044200 26.557900 -0.701100 1.612600 12.688700 0.000000 -0.000000 0.000000 1.443000 -9.136200 -39.764500 11.842000 -19.567300 2.049100 19.804500 -0.913200 23.411400 0.000000 0.000000 0.000000 -7.125000 0.000000 0.000000 -5.785600 5.375000 -5.245600 0.000000 -0.000000 0.000000 -3.433500 -6.223500 46.399400 -15.354200 -24.637200 -3.372200 -12.174000 10.520700 32.409600 0.000000 0.000000 0.000000 7.125000 0.000000 -0.000000 23.634600 61.418900 -9.751600
-30.089631 16.966092 1.379658 14.669039 86.953401 9.982053 0.000000 0.000000 0.000000 -12.913237 3.867122 7.002712 0.433454 4.224822 11.710103 0.718123 4.676897 -18.380778 0.949961 -6.207155 -17.386620 0.000000 0.000000 0.000000 13.543416 -5.293009 9.213731 -0.095281 -1.991006 5.480867 -0.661944 5.507845 -14.492683 -0.091001 -1.945466 5.355063 -1.807681 1.180845 5.975113 -0.089666 1.803839 7.537246 0.890143 0.931785 4.411534 3.776227 2.544673 -22.512136 -1.420687 2.990456 27.189276 -0.638204 1.621061 12.923300 0.000000 0.000000 0.000000 1.535340 -9.255438 -39.162030 11.356119 -18.832012 1.889321 20.943224 -0.374297 23.253714 0.000000 0.000000 0.000000 -7.125000 0.000000 0.000000 -5.064115 5.353264 -4.586997 0.000000 0.000000 0.000000 -3.322217 -6.104147 46.289954 -15.239644 -24.478846 -3.324614 -12.240672 10.911638 32.516825 0.000000 0.000000 0.000000 7.125000 0.000000 0.000000 23.661226 61.532069 -9.827258
-30.107459 16.972885 1.389638 18.129202 86.550466 13.701720 0.000000 0.000000 0.000000 -13.217695 4.001527 6.615504 0.437957 4.246277 11.770655 0.721097 4.829788 -18.513236 0.959687 -6.237264 -17.474454 0.000000 0.000000 0.000000 13.255421 -5.027916 8.887344 -0.090713 -1.942556 5.347036 -0.624992 5.631645 -14.087620 -0.092475 -1.960600 5.396821 -2.010883 1.337615 5.882952 -0.211620 1.999690 7.367162 0.872135 1.020810 4.276325 3.702222 2.451112 -22.281793 -1.205235 2.844476 27.389872 -0.568904 1.587375 12.948723 0.000000 0.000000 0.000000 1.411573 -9.534031 -36.476790 11.232302 -18.643430 1.849509 15.329150 0.909316 23.757039 0.000000 0.000000 0.000000 -7.125000 0.000000 0.000000 -8.585391 5.679016 -7.783191 0.000000 0.000000 0.000000 -3.102751 -5.952521 45.817555 -15.103037 -24.289472 -3.268220 -12.262204 10.426551 31.912277 0.000000 0.000000 0.000000 7.125000 0.000000 0.000000 23.103017 60.989741 -9.282569
-30.123144 16.979173 1.394316 7.554429 86.014059 3.318316 0.000000 0.000000 0.000000 -12.477398 4.308994 6.354350 0.442231 4.266796 11.828529 0.737829 4.906481 -18.738246 0.869832 -5.946468 -16.629142 0.000000 0.000000 0.000000 13.919144 -4.912531 8.286147 -0.101435 -2.053630 5.653786 -0.584071 6.207176 -13.658680 -0.117669 -2.211765 6.091182 -1.372349 1.453005 5.915727 -0.024476 2.145794 7.148750 0.699915 1.115675 4.034976 3.689306 2.469579 -22.309736 -1.329825 2.947741 27.902437 -0.593897 1.623442 13.170016 0.000000 0.000000 0.000000 1.278483 -9.149169 -35.978388 11.126418 -18.481714 1.815742 14.477949 1.591827 23.124972 0.000000 0.000000 0.000000 -7.125000 0.000000 0.000000 -9.078830 6.427390 -8.109865 0.000000 0.000000 0.000000 -3.204264 -5.636098 45.926471 -15.165283 -24.375903 -3.293900 -12.178782 10.483380 31.827666 0.000000 0.000000 0.000000 7.125000 0.000000 0.000000 23.117385 60.892696 -9.235162
-30.128513 16.982258 1.402362 9.962513 86.158441 5.826589 0.000000 0.000000 0.000000 -12.612736 4.274268 6.141945 0.446128 4.285382 11.880865 0.712330 4.942261 -18.494839 1.010790 -6.396561 -17.939419 0.000000 0.000000 0.000000 13.731682 -5.058859 8.346819 -0.090499 -1.940165 5.340320 -0.578451 6.170898 -13.591852 -0.117405 -2.207215 6.078699 -1.446206 1.369903 5.879116 -0.098967 2.031583 7.087677 0.666892 1.056142 3.993858 3.851210 2.439198 -22.601179 -1.425524 2.880600 28.328216 -0.666322 1.602350 13.410334 0.000000 0.000000 0.000000 1.291201 -9.101184 -35.669990 10.970777 -18.243435 1.766722 13.642898 2.051562 22.648155 0.000000 0.000000 0.000000 -7.125000 0.000000 0.000000 -9.577131 7.009850 -8.458462 0.000000 0.000000 0.000000 -2.966584 -5.722712 45.673839 -15.041515 -24.203879 -3.242941 -12.199177 10.770896 31.550189 0.000000 0.000000 0.000000 7.125000 0.000000 0.000000 22.858956 60.645188 -8.990278
-30.127511 16.984259 1.418024 6.441026 87.085381 2.343927 0.000000 0.000000 0.000000 -12.118967 3.855646 5.918853 0.468948 4.392276 12.182981 0.732137 4.454923 -18.385018 0.988946 -6.329377 -17.743065 0.000000 0.000000 0.000000 14.153810 -5.487875 8.759309 -0.069617 -1.702572 4.684364 -0.599071 5.440077 -13.787136 -0.102410 -2.062297 5.677874 -1.197740 0.983605 5.834227 0.055265 1.516487 7.032484 0.699758 0.804740 3.972359 3.800989 2.477997 -22.802971 -1.359863 2.940484 28.640451 -0.617824 1.635087 13.583586 0.000000 0.000000 0.000000 1.205587 -8.937376 -35.387826 10.925242 -18.173570 1.752529 13.399979 1.833413 22.618260 0.000000 0.000000 0.000000 -7.125000 0.000000 0.000000 -9.727590 7.068490 -8.584153 0.000000 0.000000 0.000000 -3.177955 -5.470713 46.490667 -15.378915 -24.671291 -3.382522 -12.158380 10.073547 32.302585 0.000000 0.000000 0.000000 7.125000 0.000000 0.000000 23.555419 61.318311 -9.660426
-30.138594 16.984748 1.423016 11.443367 87.062280 7.417418 0.000000 0.000000 0.000000 -12.496370 3.610426 5.693964 0.489826 4.487346 12.452010 0.760784 4.263135 -18.563616 0.761322 -5.572085 -15.547701 0.000000 0.000000 0.000000 13.779998 -5.627304 8.676666 -0.065000 -1.645500 4.526990 -0.569197 5.706476 -13.453551 -0.129858 -2.322892 6.398890 -1.443372 1.000035 5.711220 0.008551 1.534157 7.036213 0.791408 0.802606 4.040830 3.642832 2.338042 -22.789559 -1.159085 2.735250 28.683779 -0.548987 1.558555 13.586219 0.000000 0.000000 0.000000 1.040297 -8.955368 -34.988895 10.922284 -18.169028 1.751644 13.765771 2.186475 22.845038 0.000000 0.000000 0.000000 -7.125000 0.000000 0.000000 -9.509031 6.797521 -8.436335 0.000000 0.000000 0.000000 -3.301156 -5.412948 46.583015 -15.507552 -24.848401 -3.436421 -11.957792 9.590844 31.982497 0.000000 0.000000 0.000000 7.125000 0.000000 0.000000 23.484549 60.979957 -9.440174
